# xmcd
#
# Track frame offsets: 
#        150
#        15296
#        28033
#        43031
#        59141
#        72993
#        87538
#        100117
#        113698
#        128392
#        146328
#        162916
#        174622
#        191764
#        206419
#        219926
#        233576
#
# Disc length: 3361 seconds
#
# Revision: 0
# Processed by: cddbd v1.5.2PL0 Copyright (c) Steve Scherf et al.
# Submitted via: ExactAudioCopy v1.0b1
#
DISCID=e30d1f11
DTITLE=Various Artist - NEW COUNTRY
DYEAR=1900
DGENRE=Country
TTITLE0=BIG and RICH - SAVE A HORSE
TTITLE1=TRICK PONY - POUR ME
TTITLE2=SHANNON BROWN - CORN FRED
TTITLE3=NEAL McCOY - THE SHAKE
TTITLE4=TRACY LAWRENCE - ALIBIS
TTITLE5=CARLENE CARTER - EVERY LITTLE THING
TTITLE6=CLAY WALKER - WHAT'S IT TO YOU
TTITLE7=TRAVIS TRITT - T-R-O-U-B-L-E
TTITLE8=CONFEDERATE RAIL ROAD - TRASHY WOMEN
TTITLE9=LITTLE TEXAS - WHAT MIGHT HAVE BEEN
TTITLE10=LINDA RONSTADT - POOR,POOR PITFULL
TTITLE11=DWIGHT YOAKAMA - IT ONLY HURTS WHEN I CRY
TTITLE12=BLAKE SHELTON - AUSTIN
TTITLE13=LANE TURNER - LET YOU GO
TTITLE14=RAY SCOTT - MY KIND OF MUSIC
TTITLE15=JOHN ANDERSON - SWINGIN'
TTITLE16=MARK O'CONNOR - THE DEVIL COMES BACK TO GEORGIA
EXTD=
EXTT0=
EXTT1=
EXTT2=
EXTT3=
EXTT4=
EXTT5=
EXTT6=
EXTT7=
EXTT8=
EXTT9=
EXTT10=
EXTT11=
EXTT12=
EXTT13=
EXTT14=
EXTT15=
EXTT16=
PLAYORDER=
